<svg width="19" height="18" xmlns="http://www.w3.org/2000/svg"><path d="M18.524 12.76c-.043.949-.196 1.596-.417 2.162a4.367 4.367 0 0 1-1.04 1.576c-.5.495-1.001.8-1.593 1.027-.572.22-1.227.37-2.185.413-.96.044-1.266.054-3.711.054-2.444 0-2.75-.01-3.71-.054-.958-.042-1.612-.193-2.185-.413a4.419 4.419 0 0 1-1.594-1.027c-.5-.495-.808-.99-1.038-1.576-.222-.566-.374-1.213-.417-2.161-.045-.948-.055-1.252-.055-3.668 0-2.417.01-2.721.055-3.67.043-.947.195-1.593.417-2.16A4.372 4.372 0 0 1 2.09 1.687 4.416 4.416 0 0 1 3.683.66C4.256.44 4.91.289 5.868.247c.96-.044 1.266-.054 3.71-.054 2.445 0 2.75.01 3.711.054.958.042 1.613.194 2.185.414.592.227 1.094.53 1.594 1.026.5.494.808.991 1.039 1.576.221.567.374 1.213.417 2.16.045.949.055 1.253.055 3.67 0 2.416-.01 2.72-.055 3.668zM9.578 4.523c-2.551 0-4.62 2.046-4.62 4.57 0 2.524 2.069 4.57 4.62 4.57 2.552 0 4.622-2.046 4.622-4.57 0-2.524-2.07-4.57-4.622-4.57zm4.804-1.248c-.596 0-1.08.477-1.08 1.068 0 .59.484 1.068 1.08 1.068.597 0 1.08-.479 1.08-1.068 0-.59-.483-1.068-1.08-1.068zm-4.804 8.784c-1.657 0-3-1.327-3-2.965 0-1.64 1.343-2.967 3-2.967s3 1.328 3 2.967c0 1.638-1.343 2.965-3 2.965z" fill="#A3ABB4" fill-rule="evenodd"/></svg>